PathFileType	4	(X/Y/Z)	Patient4_TMGait_0pt2_03_right_08.trc.trc
DataRate	CameraRate	NumFrames	NumMarkers	Units	OrigDataRate	OrigDataStartFrame	OrigNumFrames
46.979865771812	46.979865771812	4	33	mm	46.979865771812	71	       141
Frame#	Time	Sacral			L.Shoulder			Chest			R.Shoulder			Neck			R.ASIS			L.ASIS			R.Thigh.Superior			R.Thigh.Lateral			R.Thigh.Inferior			R.Patella			L.Thigh.Superior			L.Thigh.Lateral			L.Thigh.Inferior			L.Patella			L.Shank.Superior			L.Shank.Lateral			L.Shank.Inferior			R.Shank.Superior			R.Shank.Lateral			R.Shank.Inferior			R.Heel			R.Midfoot.Superior			R.Midfoot.Lateral			R.Toe			L.Heel			L.Midfoot.Lateral			L.Midfoot.Superior			L.Toe			L.Elbow			L.Wrist			R.Elbow			R.Wrist			
		X1	Y1	Z1	X2	Y2	Z2	X3	Y3	Z3	X4	Y4	Z4	X5	Y5	Z5	X6	Y6	Z6	X7	Y7	Z7	X8	Y8	Z8	X9	Y9	Z9	X10	Y10	Z10	X11	Y11	Z11	X12	Y12	Z12	X13	Y13	Z13	X14	Y14	Z14	X15	Y15	Z15	X16	Y16	Z16	X17	Y17	Z17	X18	Y18	Z18	X19	Y19	Z19	X20	Y20	Z20	X21	Y21	Z21	X22	Y22	Z22	X23	Y23	Z23	X24	Y24	Z24	X25	Y25	Z25	X26	Y26	Z26	X27	Y27	Z27	X28	Y28	Z28	X29	Y29	Z29	X30	Y30	Z30	X31	Y31	Z31	X32	Y32	Z32	X33	Y33	Z33	

71	18.540000000000	726.314019156158	1002.362163956701	606.899160834804	852.438583741970	1429.753114591477	397.315166966052	991.422549133298	1360.203195506621	527.479374240173	954.602740160682	1431.972698910744	715.035549246397	866.021626469316	1489.441181274817	554.669639789414	971.266562913151	931.934126273947	672.913882086766	902.619185196826	961.209256098528	407.358525284435	977.581523153422	722.416280150766	631.938146182156	894.524115223023	617.588692106506	703.829039729426	946.631536086332	561.244530956989	610.901603191248	933.794680871062	471.118686172634	615.604629146818	968.133145120643	759.927508571123	416.411668906911	887.519946858306	633.881490772569	340.747130991472	998.241396140797	573.834415949501	388.757330502354	1013.279308892184	509.936818001454	382.750727188809	997.579600105291	439.870907442517	365.622735149505	925.673150970845	316.908399926137	305.760619930791	1011.459104599496	210.543574972972	348.704927295327	890.877199841368	387.786877800698	625.128093080263	811.514067406721	294.441032262125	695.216854225760	822.815647948399	197.905166176711	624.087195353609	660.442895827759	45.861790430309	608.788999901214	835.950993065793	95.913055693121	629.223168305128	749.779190388878	37.438100663528	675.171148353045	956.646802543306	39.751258957730	646.316383699472	917.657154807441	38.158055872181	371.950078479164	994.092142048984	40.223607830752	294.129835040895	1070.471539719143	110.307421899989	320.939230167674	1201.967099258669	71.067944095822	296.771804041138	714.733749809718	1099.108417438812	330.746561378382	679.175866533856	844.079808072384	381.799812946055	1185.152199576707	1191.548039559761	805.131805307968	1398.473161843126	1311.200047891289	731.137330691472	
72	18.561285714286	726.341189903522	1001.404034825051	602.150959682870	852.694943863219	1428.658730428969	392.296507278960	990.746694651486	1359.845434611760	523.866948831052	951.951797205691	1431.715147697998	710.951381118282	864.611014527487	1488.817662500016	549.769758478663	971.003527924106	931.842479500242	670.341181063339	904.094380224679	959.922481930720	404.232119822149	976.548357673445	721.735535937453	630.172270789554	891.922235569532	617.668052783152	701.858780392727	944.091106330412	560.533007696378	609.691592869940	930.238292392679	470.633693214275	614.450214540236	969.178659770451	757.776647766633	413.869111820955	887.154083802907	631.898736627408	339.271048973232	997.741560751802	571.843841584653	387.258405358041	1011.428145333873	507.687180321098	381.927517398592	996.078156615086	437.596993830222	364.953455719547	923.905217923774	314.690253922456	305.778583199909	1009.111911631779	208.393624388516	349.499405062876	887.356318342564	387.543250571284	624.204922371832	807.377887595778	294.642007004988	694.324267849745	818.731422387288	197.764151664690	623.652885998183	656.173867995385	45.845987410236	608.631373515234	831.668061445553	95.934894615751	629.144749352566	745.476257972552	37.510252078535	675.099783030243	952.347948556220	39.752742700610	646.370728434691	913.890968124635	37.720726526317	373.027066929356	990.837706600669	38.732986245874	295.611379969365	1067.822719805760	107.750417222494	323.015217217021	1199.025612620292	66.739452109752	299.850402729326	719.132407226175	1096.752047556797	322.415694270459	685.315868151585	840.927597310659	369.875122074437	1181.674797229670	1190.787995994304	802.165478103430	1393.591695765391	1311.992855507207	727.299781057207	
73	18.582571428571	726.406158989040	1000.649830874363	597.106353104332	853.172923873287	1427.696278737422	386.990646595594	990.236233754606	1359.628645232044	520.013090675867	949.425302382731	1431.651546709194	706.593494478356	863.341746205635	1488.334371245540	544.566231595144	970.759275034308	931.849753784866	667.556554990096	905.723138079477	958.885776914553	400.908961649301	975.486224176952	721.123670803394	628.200145453097	889.279643192123	617.857673337911	699.692321081399	941.481492150450	559.904679401198	608.280537941193	926.656503340820	470.276248850486	613.103097724708	970.722199077098	756.178488521710	411.344691380882	887.775978330277	630.425277910164	337.393049537502	998.068214293923	570.318157309860	385.680223669730	1010.509627070526	505.784724452115	380.908876099417	995.281662294708	435.575150874618	364.087817877542	922.547546638236	312.963620512186	305.317393423831	1006.686375310958	206.410522696153	349.965043717698	883.756730935218	387.392437438023	623.088476682212	803.243234068645	294.984190872043	693.326915972070	814.657084315193	197.725721814290	623.147753606436	651.925870079899	45.933321220615	608.464965486837	827.413777168853	95.976685039540	629.057368093990	741.195309640936	37.643245740832	675.017127982131	948.060847046805	39.739296790940	646.423601762720	909.496368773410	37.544231505757	373.756962940740	986.852105850937	37.473801473776	296.636017449325	1064.591179132022	105.327723294727	324.605866871232	1195.436847270341	62.427718860687	302.209649887489	724.071750166633	1094.558066553519	313.383263953923	692.347726002615	837.888417215820	356.854626838410	1178.071637278958	1189.974073043269	799.234268641888	1389.225304303809	1311.797045839222	723.717796197666	
74	18.603857142857	726.470419265078	1000.160553166953	591.779940073132	853.857189562574	1426.916986548404	381.471299752375	989.903867909348	1359.571228546500	515.941523256452	947.103767493264	1431.801613983541	701.998001012668	862.258737212233	1488.027418387392	539.126045291705	970.485456002437	931.958111734103	664.531419877264	907.441724315142	958.168422950112	397.361123619353	974.297877237939	720.600704414014	625.989313053291	886.545584154580	618.180112939616	697.332867058147	938.741643095802	559.387240010465	606.656913200027	923.015367967615	470.072799786250	611.572549193623	972.671721267981	755.208663109484	408.812896876144	889.358065468577	629.499775276474	335.077308037757	999.162963986063	569.284892523044	384.017557202693	1010.501875196435	504.285049538556	379.736307572913	995.192730566080	433.871716499679	363.071929771045	921.724721517165	311.752214609023	304.358072385220	1004.334790247649	204.674309830874	350.144271585052	880.045825445975	387.355551222315	621.780135187085	799.094457458739	295.485072212476	692.229478489479	810.589361504179	197.809265016479	622.573737841365	647.701913018607	46.145710990334	608.290566841053	823.192662459386	96.041441122854	628.956738888681	736.938637124957	37.849338891886	674.919506561472	943.786709208680	39.707047520835	646.472994850252	904.799283972118	37.551956215572	374.149757190329	982.456797234622	36.479870185009	297.220455871900	1060.987257143190	103.196468576089	325.713799574688	1191.464452623395	58.505528444215	303.846893864620	729.469152705160	1092.611145783936	303.804306338609	700.241406362090	835.077183240671	342.980252228629	1174.533849367353	1189.261108708144	796.286793681818	1385.485473456373	1310.939054179891	720.339028193229	
